<svg width="40" height="40" viewBox="0 0 40 40" fill="none" xmlns="http://www.w3.org/2000/svg">
<path d="M27.56 40V24.52H32.7444L33.52 18.5022H27.56V14.6622C27.56 12.92 28.0444 11.7311 30.5422 11.7311H33.7289V6.34889C32.1862 6.18521 30.6358 6.10583 29.0844 6.11111C24.4911 6.11111 21.3467 8.91556 21.3467 14.0667V18.5022H16.1511V24.52H21.3467V40H2.22222C1.63285 40 1.06762 39.7659 0.650874 39.3491C0.234126 38.9324 0 38.3671 0 37.7778V2.22222C0 1.63285 0.234126 1.06762 0.650874 0.650874C1.06762 0.234126 1.63285 0 2.22222 0H37.7778C38.3671 0 38.9324 0.234126 39.3491 0.650874C39.7659 1.06762 40 1.63285 40 2.22222V37.7778C40 38.3671 39.7659 38.9324 39.3491 39.3491C38.9324 39.7659 38.3671 40 37.7778 40H27.56Z" fill="white"/>
</svg>
