<svg width="60" height="40" viewBox="0 0 60 40" fill="none" xmlns="http://www.w3.org/2000/svg">
<path d="M58.629 6.245C60 10.7 60 20 60 20C60 20 60 29.3 58.629 33.755C57.867 36.2175 55.638 38.155 52.815 38.81C47.688 40 30 40 30 40C30 40 12.321 40 7.185 38.81C4.35 38.145 2.124 36.21 1.371 33.755C8.9407e-08 29.3 0 20 0 20C0 20 8.9407e-08 10.7 1.371 6.245C2.133 3.7825 4.362 1.845 7.185 1.19C12.321 -4.47035e-07 30 0 30 0C30 0 47.688 -4.47035e-07 52.815 1.19C55.65 1.855 57.876 3.79 58.629 6.245ZM24 28.75L42 20L24 11.25V28.75Z" fill="white"/>
</svg>
